<svg xmlns="http://www.w3.org/2000/svg" xmlns:xlink="http://www.w3.org/1999/xlink" preserveAspectRatio="xMidYMid" width="15" height="15" viewBox="0 0 15 15">
  <defs>
    <style>

      .cls-2 {
        fill: #7d8da4;
      }
    </style>
  </defs>
  <path d="M14.000,7.000 C14.000,7.000 1.000,7.000 1.000,7.000 C0.448,7.000 0.000,6.552 0.000,6.000 C0.000,5.448 0.448,5.000 1.000,5.000 C1.000,5.000 14.000,5.000 14.000,5.000 C14.552,5.000 15.000,5.448 15.000,6.000 C15.000,6.552 14.552,7.000 14.000,7.000 ZM11.000,2.000 C11.000,2.000 1.000,2.000 1.000,2.000 C0.448,2.000 0.000,1.552 0.000,1.000 C0.000,0.448 0.448,-0.000 1.000,-0.000 C1.000,-0.000 11.000,-0.000 11.000,-0.000 C11.552,-0.000 12.000,0.448 12.000,1.000 C12.000,1.552 11.552,2.000 11.000,2.000 ZM0.500,10.000 C0.500,10.000 5.500,10.000 5.500,10.000 C5.776,10.000 6.000,10.224 6.000,10.500 C6.000,10.500 6.000,11.500 6.000,11.500 C6.000,11.776 5.776,12.000 5.500,12.000 C5.500,12.000 0.500,12.000 0.500,12.000 C0.224,12.000 0.000,11.776 0.000,11.500 C0.000,11.500 0.000,10.500 0.000,10.500 C0.000,10.224 0.224,10.000 0.500,10.000 ZM9.586,11.000 C9.586,11.000 10.293,11.707 10.293,11.707 C10.293,11.707 12.414,9.586 12.414,9.586 C12.805,9.195 13.438,9.195 13.828,9.586 C14.219,9.976 14.219,10.609 13.828,11.000 C13.828,11.000 11.000,13.828 11.000,13.828 C10.609,14.219 9.976,14.219 9.586,13.828 C9.586,13.828 8.172,12.414 8.172,12.414 C7.781,12.024 7.781,11.390 8.172,11.000 C8.562,10.609 9.195,10.609 9.586,11.000 Z" id="path-1" class="cls-2" fill-rule="evenodd"/>
</svg>
