<?xml version="1.0" encoding="utf-8"?>
<!-- Generator: Adobe Illustrator 19.1.0, SVG Export Plug-In . SVG Version: 6.00 Build 0)  -->
<!DOCTYPE svg PUBLIC "-//W3C//DTD SVG 1.1//EN" "http://www.w3.org/Graphics/SVG/1.1/DTD/svg11.dtd">
<svg version="1.1" id="Layer_1" xmlns="http://www.w3.org/2000/svg" xmlns:xlink="http://www.w3.org/1999/xlink" x="0px" y="0px"
	 viewBox="-442 105 14 18" style="enable-background:new -442 105 14 18;" xml:space="preserve">
<style type="text/css">
	.st0{fill:#838CA4;}
</style>
<path class="st0" d="M-429,116h-11v6.5c0,0.3-0.2,0.5-0.5,0.5h-1c-0.3,0-0.5-0.2-0.5-0.5V107v-1c0-0.6,0.4-1,1-1c0.6,0,1,0.4,1,1h11
	c0.6,0,1,0.4,1,1v8C-428,115.6-428.4,116-429,116z M-430,110h-2v-2h-2v2h-2v-2h-2v2h-2v2h2v2h2v-2h2v2h2v-2h2V110z M-434,112v-2h2v2
	H-434z M-438,112v-2h2v2H-438z"/>
</svg>
