<?xml version="1.0" encoding="utf-8"?>
<!-- Generator: Adobe Illustrator 19.1.0, SVG Export Plug-In . SVG Version: 6.00 Build 0)  -->
<svg version="1.1" id="Layer_1" xmlns="http://www.w3.org/2000/svg" xmlns:xlink="http://www.w3.org/1999/xlink" x="0px" y="0px"
	 viewBox="-185 138 29 26" style="enable-background:new -185 138 29 26;" xml:space="preserve">
<style type="text/css">
	.st0{fill:none;}
	.st1{fill:#FFCE00;}
</style>
<g>
	<path class="st0" d="M-184,154.2c0,0.5,0.4,0.9,1,0.9c0.3,0,0.5-0.1,0.7-0.3c-0.2-0.5-0.3-1-0.4-1.6c-0.1,0-0.2-0.1-0.3-0.1
		C-183.6,153.2-184,153.7-184,154.2z"/>
	<path class="st1" d="M-182.1,154.2c0-0.4-0.3-0.8-0.7-0.9c0.1,0.5,0.2,1.1,0.4,1.6C-182.2,154.7-182.1,154.4-182.1,154.2z"/>
	<ellipse class="st1" cx="-176.7" cy="148.4" rx="1" ry="0.9"/>
	<ellipse class="st1" cx="-170.4" cy="154.2" rx="1" ry="0.9"/>
	<path class="st1" d="M-170,138c-7.2,0-13,5.8-13,13c0,0.1,0,0.2,0,0.4c0.4,0,0.8,0.1,1.1,0.3l2.3-2.3c-0.1-0.3-0.2-0.6-0.2-1
		c0-1.6,1.3-2.8,2.9-2.8c1.6,0,2.9,1.3,2.9,2.8c0,0.3-0.1,0.7-0.2,1l2.3,2.3c0.4-0.2,0.8-0.3,1.2-0.3c1.6,0,2.9,1.3,2.9,2.8
		c0,1.6-1.3,2.8-2.9,2.8c-1.6,0-2.9-1.3-2.9-2.8c0-0.4,0.1-0.8,0.3-1.2l-2.2-2.1c-0.4,0.3-0.9,0.4-1.5,0.4c-0.5,0-1-0.2-1.5-0.4
		l-2.2,2.1c0.2,0.4,0.3,0.8,0.3,1.2c0,1.1-0.6,2-1.5,2.5c2.1,4.3,6.5,7.4,11.7,7.4c7.2,0,13-5.8,13-13S-162.8,138-170,138z
		 M-166.8,152.7l-1.4-1.3l1.3-1.3l1.4,1.3L-166.8,152.7z M-164.9,150.8l-1.4-1.3l1.3-1.3l1.4,1.3L-164.9,150.8z M-161,149.9
		c-0.2,0.4-0.7,0.1-0.9-0.1c-0.9-0.8-2-2-2.9-2.8c-0.2-0.2-0.6-0.9-0.2-1c1.2-0.5,4.2-1.4,4.8-0.8
		C-159.6,145.8-160.5,148.7-161,149.9z"/>
</g>
</svg>
